<?xml version="1.0" standalone="no"?>
<!DOCTYPE svg PUBLIC "-//W3C//DTD SVG 20010904//EN"
        "http://www.w3.org/TR/2001/REC-SVG-20010904/DTD/svg10.dtd">
<svg version="1.0" xmlns="http://www.w3.org/2000/svg"
     width="1023.000000pt" height="672.000000pt" viewBox="0 0 1023.000000 672.000000"
     preserveAspectRatio="xMidYMid meet">

    <g transform="translate(0.000000,672.000000) scale(0.100000,-0.100000)"
       fill="#000000" stroke="none">
        <path d="M3868 5731 l-33 -29 -3 -1199 c-3 -1333 -8 -1244 63 -1277 36 -17
140 -22 150 -7 3 5 5 301 5 656 0 462 4 653 12 668 l11 22 -23 -20 -23 -20 12
22 c8 16 11 189 11 617 l0 596 -75 0 c-68 0 -77 -2 -107 -29z"/>
        <path d="M6159 5143 c-1 -340 -2 -626 -2 -636 0 -10 -5 -16 -11 -14 -6 3 -10
10 -8 16 1 7 -1 10 -6 7 -4 -2 -39 20 -78 51 -38 30 -151 121 -252 200 l-183
146 -42 -40 c-61 -58 -216 -185 -260 -212 -41 -25 -43 -32 -23 -64 40 -61 38
-172 -5 -230 -15 -20 -18 -32 -11 -35 23 -7 138 -96 240 -184 l103 -89 249
200 c138 111 250 197 250 193 0 -5 7 -9 15 -9 11 0 12 4 4 13 -6 7 -6 14 -1
18 10 6 22 -16 22 -40 0 -10 -5 -12 -12 -8 -10 6 -10 5 -1 -7 10 -12 13 -158
15 -610 l3 -594 65 -3 c75 -3 123 19 141 65 13 34 19 2363 7 2410 -15 55 -49
73 -139 73 l-79 0 -1 -617z"/>
        <path d="M5080 5490 c-14 -17 -32 -39 -41 -48 -9 -9 -93 -113 -188 -230 l-172
-212 95 -105 c53 -57 116 -135 141 -174 l45 -70 36 24 c20 14 58 27 89 30 48
6 62 4 111 -20 30 -15 56 -25 58 -24 1 2 18 29 36 59 19 30 83 105 142 165
l107 111 -190 234 c-105 129 -202 247 -217 263 l-28 27 -24 -30z"/>
        <path d="M4345 4714 c-137 -111 -257 -203 -265 -203 -13 -1 -13 0 0 9 13 8 13
10 -1 10 -11 0 -16 -8 -15 -24 1 -17 35 -51 129 -127 71 -57 143 -115 162
-129 18 -14 75 -59 126 -101 52 -41 100 -78 106 -83 9 -4 44 23 100 79 74 74
205 174 242 186 7 3 1 23 -14 53 -33 64 -34 142 -3 205 14 28 18 46 11 48 -35
12 -122 81 -218 174 l-110 106 -250 -203z"/>
        <path d="M4918 4262 c-36 -57 -190 -245 -221 -270 -14 -12 7 -43 196 -278
l212 -265 34 38 c54 62 368 448 382 471 12 18 7 26 -45 82 -69 75 -180 212
-203 250 l-16 28 -46 -25 c-29 -14 -64 -24 -91 -24 -60 0 -69 3 -113 29 -21
12 -41 22 -45 22 -4 0 -24 -26 -44 -58z"/>
        <path d="M3314 2936 c-48 -15 -93 -46 -94 -63 0 -7 -4 -13 -9 -13 -19 0 -54
-105 -54 -164 1 -100 71 -197 162 -224 48 -15 136 -15 162 -2 22 12 28 90 7
90 -9 0 -8 4 2 11 12 9 11 9 -5 3 -11 -4 -46 -8 -78 -8 -51 0 -61 3 -88 30
-48 48 -57 127 -23 195 16 31 74 62 112 58 15 -2 33 1 41 5 9 6 12 5 8 -1 -4
-6 -1 -13 6 -16 14 -5 57 34 57 52 0 7 5 9 13 5 9 -6 9 -5 0 8 -7 8 -9 19 -5
23 4 5 2 5 -5 1 -6 -3 -14 -2 -18 4 -4 6 -11 8 -16 5 -5 -4 -9 -2 -9 3 0 14
-120 13 -166 -2z m153 -21 c0 -8 -4 -12 -9 -9 -5 3 -6 10 -3 15 9 13 12 11 12
-6z m46 -25 c-6 -21 -29 -34 -38 -20 -4 6 1 10 9 10 9 0 16 5 16 11 0 5 -4 8
-9 5 -5 -4 -7 3 -4 14 4 15 9 18 18 10 7 -6 11 -19 8 -30z"/>
        <path d="M6700 2940 c11 -7 11 -10 2 -10 -7 0 -10 -5 -7 -10 4 -6 6 -107 5
-225 0 -169 2 -215 12 -215 9 0 9 -3 -2 -11 -13 -9 -13 -10 0 -6 12 3 15 22
15 93 0 49 5 92 10 97 10 8 147 7 178 -1 15 -4 17 -17 17 -98 l0 -94 55 0 c48
0 55 3 60 23 3 12 4 121 3 242 l-3 220 -57 3 c-66 3 -61 13 -58 -110 1 -36 -3
-69 -9 -72 -6 -4 -49 -10 -96 -14 -83 -8 -86 -7 -91 15 -3 12 -4 45 -2 73 1
27 -1 50 -6 50 -6 0 -5 5 2 12 14 14 16 42 2 33 -5 -3 -10 -1 -10 4 0 6 -8 11
-17 11 -15 0 -16 -2 -3 -10z"/>
        <path d="M3505 2841 c-3 -5 -2 -12 3 -15 5 -3 9 1 9 9 0 17 -3 19 -12 6z"/>
        <path d="M3526 2597 c3 -10 9 -15 12 -12 3 3 0 11 -7 18 -10 9 -11 8 -5 -6z"/>
        <path d="M3158 2304 c-11 -11 -10 -936 1 -953 7 -11 38 -13 164 -9 85 3 160 9
166 12 12 8 15 154 3 173 -4 6 -26 13 -50 15 -23 3 -45 7 -48 11 -5 5 -8 135
-5 186 1 6 25 11 54 13 l52 3 3 88 3 87 -55 0 -54 0 -4 83 c-2 45 -1 85 2 89
3 4 38 8 78 9 39 1 72 3 72 4 0 2 -8 9 -17 16 -11 10 -14 10 -9 2 8 -15 -3
-17 -23 -4 -10 6 -10 10 -1 16 14 9 11 107 -4 117 -6 4 0 8 14 8 20 0 22 2 10
11 -12 9 -10 10 9 5 13 -2 20 -1 15 4 -12 10 -367 24 -376 14z"/>
        <path d="M6835 2301 c-27 -3 -55 -10 -62 -14 -17 -10 -54 -97 -47 -108 3 -5
-2 -6 -10 -3 -12 5 -16 -1 -16 -21 0 -14 5 -35 10 -46 7 -13 7 -19 0 -19 -7 0
-10 -122 -10 -370 0 -240 4 -370 10 -370 6 0 10 78 11 213 2 260 2 266 15 275
5 4 35 48 67 97 31 50 62 97 67 105 98 149 159 247 160 255 0 12 -122 16 -195
6z m-101 -407 c3 -8 2 -12 -4 -9 -6 3 -10 10 -10 16 0 14 7 11 14 -7z"/>
        <path d="M6670 2106 c0 -2 7 -6 15 -10 8 -3 15 -1 15 4 0 6 -7 10 -15 10 -8 0
-15 -2 -15 -4z"/>
        <path d="M6497 1083 c-4 -3 -7 -21 -7 -40 0 -28 4 -33 23 -33 18 0 19 2 7 10
-13 9 -13 11 0 20 13 9 13 11 0 20 -10 6 -11 10 -2 10 6 0 12 5 12 10 0 11
-23 14 -33 3z"/>
        <path d="M6567 1078 c-5 -15 42 -62 52 -53 3 4 -5 15 -18 26 -17 14 -19 19 -7
19 9 0 16 5 16 10 0 15 -38 12 -43 -2z"/>
        <path d="M3587 1073 c-4 -3 -7 -18 -7 -31 0 -31 9 -24 16 12 4 27 2 31 -9 19z"/>
        <path d="M3630 1049 c0 -20 4 -29 9 -23 15 15 17 47 4 51 -9 3 -13 -6 -13 -28z"/>
        <path d="M3692 1060 c0 -14 2 -19 5 -12 2 6 2 18 0 25 -3 6 -5 1 -5 -13z"/>
        <path d="M3742 1060 c0 -14 2 -19 5 -12 2 6 2 18 0 25 -3 6 -5 1 -5 -13z"/>
        <path d="M6380 1064 c0 -8 5 -12 10 -9 6 3 10 10 10 16 0 5 -4 9 -10 9 -5 0
-10 -7 -10 -16z"/>
        <path d="M6440 1048 c0 -17 3 -28 7 -25 9 10 10 57 1 57 -4 0 -8 -14 -8 -32z"/>
        <path d="M6652 1060 c0 -14 2 -19 5 -12 2 6 2 18 0 25 -3 6 -5 1 -5 -13z"/>
        <path d="M3672 1030 c7 -10 14 -18 15 -16 6 6 -9 36 -18 36 -5 0 -4 -9 3 -20z"/>
    </g>
</svg>
